<svg id="visual" viewBox="0 0 1920 1080" width="1920" height="1080" xmlns="http://www.w3.org/2000/svg" xmlns:xlink="http://www.w3.org/1999/xlink" version="1.1"><rect x="0" y="0" width="1920" height="1080" fill="#001220"></rect><defs><linearGradient id="grad1_0" x1="43.8%" y1="0%" x2="100%" y2="100%"><stop offset="14.444444444444446%" stop-color="#fbae3c" stop-opacity="1"></stop><stop offset="85.55555555555554%" stop-color="#fbae3c" stop-opacity="1"></stop></linearGradient></defs><defs><linearGradient id="grad1_1" x1="43.8%" y1="0%" x2="100%" y2="100%"><stop offset="14.444444444444446%" stop-color="#fbae3c" stop-opacity="1"></stop><stop offset="85.55555555555554%" stop-color="#eb7458" stop-opacity="1"></stop></linearGradient></defs><defs><linearGradient id="grad1_2" x1="43.8%" y1="0%" x2="100%" y2="100%"><stop offset="14.444444444444446%" stop-color="#b84e6c" stop-opacity="1"></stop><stop offset="85.55555555555554%" stop-color="#eb7458" stop-opacity="1"></stop></linearGradient></defs><defs><linearGradient id="grad1_3" x1="43.8%" y1="0%" x2="100%" y2="100%"><stop offset="14.444444444444446%" stop-color="#b84e6c" stop-opacity="1"></stop><stop offset="85.55555555555554%" stop-color="#713c69" stop-opacity="1"></stop></linearGradient></defs><defs><linearGradient id="grad1_4" x1="43.8%" y1="0%" x2="100%" y2="100%"><stop offset="14.444444444444446%" stop-color="#2d2b4c" stop-opacity="1"></stop><stop offset="85.55555555555554%" stop-color="#713c69" stop-opacity="1"></stop></linearGradient></defs><defs><linearGradient id="grad1_5" x1="43.8%" y1="0%" x2="100%" y2="100%"><stop offset="14.444444444444446%" stop-color="#2d2b4c" stop-opacity="1"></stop><stop offset="85.55555555555554%" stop-color="#001220" stop-opacity="1"></stop></linearGradient></defs><defs><linearGradient id="grad2_0" x1="0%" y1="0%" x2="56.3%" y2="100%"><stop offset="14.444444444444446%" stop-color="#fbae3c" stop-opacity="1"></stop><stop offset="85.55555555555554%" stop-color="#fbae3c" stop-opacity="1"></stop></linearGradient></defs><defs><linearGradient id="grad2_1" x1="0%" y1="0%" x2="56.3%" y2="100%"><stop offset="14.444444444444446%" stop-color="#eb7458" stop-opacity="1"></stop><stop offset="85.55555555555554%" stop-color="#fbae3c" stop-opacity="1"></stop></linearGradient></defs><defs><linearGradient id="grad2_2" x1="0%" y1="0%" x2="56.3%" y2="100%"><stop offset="14.444444444444446%" stop-color="#eb7458" stop-opacity="1"></stop><stop offset="85.55555555555554%" stop-color="#b84e6c" stop-opacity="1"></stop></linearGradient></defs><defs><linearGradient id="grad2_3" x1="0%" y1="0%" x2="56.3%" y2="100%"><stop offset="14.444444444444446%" stop-color="#713c69" stop-opacity="1"></stop><stop offset="85.55555555555554%" stop-color="#b84e6c" stop-opacity="1"></stop></linearGradient></defs><defs><linearGradient id="grad2_4" x1="0%" y1="0%" x2="56.3%" y2="100%"><stop offset="14.444444444444446%" stop-color="#713c69" stop-opacity="1"></stop><stop offset="85.55555555555554%" stop-color="#2d2b4c" stop-opacity="1"></stop></linearGradient></defs><defs><linearGradient id="grad2_5" x1="0%" y1="0%" x2="56.3%" y2="100%"><stop offset="14.444444444444446%" stop-color="#001220" stop-opacity="1"></stop><stop offset="85.55555555555554%" stop-color="#2d2b4c" stop-opacity="1"></stop></linearGradient></defs><g transform="translate(1920, 0)"><path d="M0 972C-165.1 939.7 -330.2 907.5 -479.5 830.5C-628.8 753.6 -762.3 631.9 -841.8 486C-921.2 340.1 -946.6 170.1 -972 0L0 0Z" fill="#131f37"></path><path d="M0 810C-137.6 783.1 -275.2 756.2 -399.6 692.1C-524 628 -635.3 526.6 -701.5 405C-767.7 283.4 -788.8 141.7 -810 0L0 0Z" fill="#4d345e"></path><path d="M0 648C-110.1 626.5 -220.1 605 -319.7 553.7C-419.2 502.4 -508.2 421.2 -561.2 324C-614.2 226.8 -631.1 113.4 -648 0L0 0Z" fill="#96446e"></path><path d="M0 486C-82.5 469.9 -165.1 453.7 -239.7 415.3C-314.4 376.8 -381.2 315.9 -420.9 243C-460.6 170.1 -473.3 85 -486 0L0 0Z" fill="#d55e64"></path><path d="M0 324C-55 313.2 -110.1 302.5 -159.8 276.8C-209.6 251.2 -254.1 210.6 -280.6 162C-307.1 113.4 -315.5 56.7 -324 0L0 0Z" fill="#f88f4a"></path><path d="M0 162C-27.5 156.6 -55 151.2 -79.9 138.4C-104.8 125.6 -127.1 105.3 -140.3 81C-153.5 56.7 -157.8 28.3 -162 0L0 0Z" fill="#fbae3c"></path></g><g transform="translate(0, 1080)"><path d="M0 -972C191.3 -958.9 382.6 -945.8 486 -841.8C589.4 -737.8 604.8 -542.9 671.2 -387.5C737.5 -232.1 854.8 -116 972 0L0 0Z" fill="#131f37"></path><path d="M0 -810C159.4 -799.1 318.9 -788.1 405 -701.5C491.1 -614.8 504 -452.5 559.3 -322.9C614.6 -193.4 712.3 -96.7 810 0L0 0Z" fill="#4d345e"></path><path d="M0 -648C127.5 -639.3 255.1 -630.5 324 -561.2C392.9 -491.9 403.2 -362 447.4 -258.3C491.7 -154.7 569.8 -77.4 648 0L0 0Z" fill="#96446e"></path><path d="M0 -486C95.7 -479.4 191.3 -472.9 243 -420.9C294.7 -368.9 302.4 -271.5 335.6 -193.8C368.8 -116 427.4 -58 486 0L0 0Z" fill="#d55e64"></path><path d="M0 -324C63.8 -319.6 127.5 -315.3 162 -280.6C196.5 -245.9 201.6 -181 223.7 -129.2C245.8 -77.4 284.9 -38.7 324 0L0 0Z" fill="#f88f4a"></path><path d="M0 -162C31.9 -159.8 63.8 -157.6 81 -140.3C98.2 -123 100.8 -90.5 111.9 -64.6C122.9 -38.7 142.5 -19.3 162 0L0 0Z" fill="#fbae3c"></path></g></svg>