<svg id="visual" viewBox="0 0 1920 1080" width="1920" height="1080" xmlns="http://www.w3.org/2000/svg" xmlns:xlink="http://www.w3.org/1999/xlink" version="1.1"><path d="M0 152L175 217L349 185L524 131L698 206L873 98L1047 239L1222 293L1396 163L1571 260L1745 271L1920 120L1920 0L1745 0L1571 0L1396 0L1222 0L1047 0L873 0L698 0L524 0L349 0L175 0L0 0Z" fill="#00cc8e"></path><path d="M0 368L175 347L349 325L524 325L698 282L873 303L1047 422L1222 379L1396 260L1571 390L1745 347L1920 260L1920 118L1745 269L1571 258L1396 161L1222 291L1047 237L873 96L698 204L524 129L349 183L175 215L0 150Z" fill="#00b98a"></path><path d="M0 530L175 487L349 498L524 498L698 465L873 379L1047 519L1222 444L1396 411L1571 573L1745 411L1920 347L1920 258L1745 345L1571 388L1396 258L1222 377L1047 420L873 301L698 280L524 323L349 323L175 345L0 366Z" fill="#00a784"></path><path d="M0 822L175 746L349 865L524 854L698 865L873 681L1047 714L1222 811L1396 627L1571 725L1745 833L1920 617L1920 345L1745 409L1571 571L1396 409L1222 442L1047 517L873 377L698 463L524 496L349 496L175 485L0 528Z" fill="#00957c"></path><path d="M0 1081L175 1081L349 1081L524 1081L698 1081L873 1081L1047 1081L1222 1081L1396 1081L1571 1081L1745 1081L1920 1081L1920 615L1745 831L1571 723L1396 625L1222 809L1047 712L873 679L698 863L524 852L349 863L175 744L0 820Z" fill="#038373"></path></svg>