<svg id="visual" viewBox="0 0 1920 1080" width="1920" height="1080" xmlns="http://www.w3.org/2000/svg" xmlns:xlink="http://www.w3.org/1999/xlink" version="1.1"><rect x="0" y="0" width="1920" height="1080" fill="#002233"></rect><path d="M0 402L20 407.2C40 412.3 80 422.7 120 477.8C160 533 200 633 240 699.7C280 766.3 320 799.7 360 802C400 804.3 440 775.7 480 675.5C520 575.3 560 403.7 600 391.7C640 379.7 680 527.3 720 559.3C760 591.3 800 507.7 840 524.7C880 541.7 920 659.3 960 637.2C1000 615 1040 453 1080 401.2C1120 349.3 1160 407.7 1200 434.2C1240 460.7 1280 455.3 1320 417.8C1360 380.3 1400 310.7 1440 324.7C1480 338.7 1520 436.3 1560 510.5C1600 584.7 1640 635.3 1680 635.2C1720 635 1760 584 1800 517.7C1840 451.3 1880 369.7 1900 328.8L1920 288L1920 1081L1900 1081C1880 1081 1840 1081 1800 1081C1760 1081 1720 1081 1680 1081C1640 1081 1600 1081 1560 1081C1520 1081 1480 1081 1440 1081C1400 1081 1360 1081 1320 1081C1280 1081 1240 1081 1200 1081C1160 1081 1120 1081 1080 1081C1040 1081 1000 1081 960 1081C920 1081 880 1081 840 1081C800 1081 760 1081 720 1081C680 1081 640 1081 600 1081C560 1081 520 1081 480 1081C440 1081 400 1081 360 1081C320 1081 280 1081 240 1081C200 1081 160 1081 120 1081C80 1081 40 1081 20 1081L0 1081Z" fill="#0066FF" stroke-linecap="round" stroke-linejoin="miter"></path></svg>