<svg id="visual" viewBox="0 0 1920 1080" width="1920" height="1080" xmlns="http://www.w3.org/2000/svg" xmlns:xlink="http://www.w3.org/1999/xlink" version="1.1"><rect x="0" y="0" width="1920" height="1080" fill="#931C1C"></rect><path d="M0 222L213 187L427 330L640 493L853 344L1067 127L1280 527L1493 279L1707 401L1920 140L1920 1081L1707 1081L1493 1081L1280 1081L1067 1081L853 1081L640 1081L427 1081L213 1081L0 1081Z" fill="#f5730a"></path><path d="M0 467L213 441L427 321L640 312L853 210L1067 415L1280 486L1493 550L1707 483L1920 532L1920 1081L1707 1081L1493 1081L1280 1081L1067 1081L853 1081L640 1081L427 1081L213 1081L0 1081Z" fill="#eb6a0a"></path><path d="M0 418L213 267L427 471L640 296L853 547L1067 440L1280 575L1493 542L1707 507L1920 358L1920 1081L1707 1081L1493 1081L1280 1081L1067 1081L853 1081L640 1081L427 1081L213 1081L0 1081Z" fill="#e16209"></path><path d="M0 327L213 533L427 531L640 580L853 556L1067 410L1280 661L1493 372L1707 390L1920 387L1920 1081L1707 1081L1493 1081L1280 1081L1067 1081L853 1081L640 1081L427 1081L213 1081L0 1081Z" fill="#d75909"></path><path d="M0 708L213 676L427 472L640 685L853 437L1067 572L1280 703L1493 567L1707 672L1920 536L1920 1081L1707 1081L1493 1081L1280 1081L1067 1081L853 1081L640 1081L427 1081L213 1081L0 1081Z" fill="#cd5108"></path><path d="M0 560L213 481L427 589L640 710L853 760L1067 660L1280 689L1493 605L1707 703L1920 603L1920 1081L1707 1081L1493 1081L1280 1081L1067 1081L853 1081L640 1081L427 1081L213 1081L0 1081Z" fill="#c34807"></path><path d="M0 800L213 810L427 557L640 691L853 752L1067 758L1280 677L1493 796L1707 747L1920 791L1920 1081L1707 1081L1493 1081L1280 1081L1067 1081L853 1081L640 1081L427 1081L213 1081L0 1081Z" fill="#b94007"></path><path d="M0 821L213 740L427 848L640 689L853 634L1067 695L1280 766L1493 729L1707 666L1920 651L1920 1081L1707 1081L1493 1081L1280 1081L1067 1081L853 1081L640 1081L427 1081L213 1081L0 1081Z" fill="#af3706"></path><path d="M0 864L213 862L427 834L640 835L853 743L1067 809L1280 883L1493 743L1707 816L1920 795L1920 1081L1707 1081L1493 1081L1280 1081L1067 1081L853 1081L640 1081L427 1081L213 1081L0 1081Z" fill="#a52f05"></path><path d="M0 792L213 937L427 834L640 784L853 891L1067 847L1280 915L1493 930L1707 948L1920 921L1920 1081L1707 1081L1493 1081L1280 1081L1067 1081L853 1081L640 1081L427 1081L213 1081L0 1081Z" fill="#9b2604"></path><path d="M0 873L213 934L427 895L640 981L853 948L1067 912L1280 918L1493 863L1707 969L1920 951L1920 1081L1707 1081L1493 1081L1280 1081L1067 1081L853 1081L640 1081L427 1081L213 1081L0 1081Z" fill="#911e02"></path><path d="M0 973L213 964L427 959L640 993L853 972L1067 1021L1280 955L1493 1034L1707 995L1920 1029L1920 1081L1707 1081L1493 1081L1280 1081L1067 1081L853 1081L640 1081L427 1081L213 1081L0 1081Z" fill="#871400"></path></svg>