<svg id="visual" viewBox="0 0 1920 1080" width="1920" height="1080" xmlns="http://www.w3.org/2000/svg" xmlns:xlink="http://www.w3.org/1999/xlink" version="1.1"><rect x="0" y="0" width="1920" height="1080" fill="#08155d"></rect><g fill="#297EA6"><path d="M0 -218L48.9 -67.4L207.4 -67.4L79.2 25.7L128.2 176.4L0 83.3L-128.2 176.4L-79.2 25.7L-207.4 -67.4L-48.9 -67.4Z" transform="translate(549 612)"></path><path d="M0 -96.3L21.6 -29.7L91.6 -29.7L35 11.4L56.6 77.9L0 36.8L-56.6 77.9L-35 11.4L-91.6 -29.7L-21.6 -29.7Z" transform="translate(1249 533)"></path><path d="M0 -106.7L23.9 -33L101.4 -33L38.7 12.6L62.7 86.3L0 40.7L-62.7 86.3L-38.7 12.6L-101.4 -33L-23.9 -33Z" transform="translate(1726 711)"></path><path d="M0 -193.5L43.4 -59.8L184 -59.8L70.3 22.8L113.7 156.5L0 73.9L-113.7 156.5L-70.3 22.8L-184 -59.8L-43.4 -59.8Z" transform="translate(1610 22)"></path><path d="M0 -100L22.5 -30.9L95.1 -30.9L36.3 11.8L58.8 80.9L0 38.2L-58.8 80.9L-36.3 11.8L-95.1 -30.9L-22.5 -30.9Z" transform="translate(1093 977)"></path><path d="M0 -120.8L27.1 -37.3L114.9 -37.3L43.9 14.3L71 97.7L0 46.1L-71 97.7L-43.9 14.3L-114.9 -37.3L-27.1 -37.3Z" transform="translate(231 30)"></path><path d="M0 -158.6L35.6 -49L150.8 -49L57.6 18.7L93.2 128.3L0 60.6L-93.2 128.3L-57.6 18.7L-150.8 -49L-35.6 -49Z" transform="translate(889 164)"></path><path d="M0 -186.9L42 -57.7L177.7 -57.7L67.9 22.1L109.8 151.2L0 71.4L-109.8 151.2L-67.9 22.1L-177.7 -57.7L-42 -57.7Z" transform="translate(65 931)"></path></g></svg>