<svg id="visual" viewBox="0 0 1920 1080" width="1920" height="1080" xmlns="http://www.w3.org/2000/svg" xmlns:xlink="http://www.w3.org/1999/xlink" version="1.1"><path d="M0 131L29.2 131C58.3 131 116.7 131 174.8 122C233 113 291 95 349.2 91.3C407.3 87.7 465.7 98.3 523.8 109C582 119.7 640 130.3 698.2 150.2C756.3 170 814.7 199 872.8 188.3C931 177.7 989 127.3 1047.2 120.2C1105.3 113 1163.7 149 1221.8 168.7C1280 188.3 1338 191.7 1396.2 179C1454.3 166.3 1512.7 137.7 1570.8 128.7C1629 119.7 1687 130.3 1745.2 134C1803.3 137.7 1861.7 134.3 1890.8 132.7L1920 131L1920 0L1890.8 0C1861.7 0 1803.3 0 1745.2 0C1687 0 1629 0 1570.8 0C1512.7 0 1454.3 0 1396.2 0C1338 0 1280 0 1221.8 0C1163.7 0 1105.3 0 1047.2 0C989 0 931 0 872.8 0C814.7 0 756.3 0 698.2 0C640 0 582 0 523.8 0C465.7 0 407.3 0 349.2 0C291 0 233 0 174.8 0C116.7 0 58.3 0 29.2 0L0 0Z" fill="#6198ff"></path><path d="M0 530L29.2 492.2C58.3 454.3 116.7 378.7 174.8 382.3C233 386 291 469 349.2 497.8C407.3 526.7 465.7 501.3 523.8 494.2C582 487 640 498 698.2 496.2C756.3 494.3 814.7 479.7 872.8 479.7C931 479.7 989 494.3 1047.2 487.2C1105.3 480 1163.7 451 1221.8 434.7C1280 418.3 1338 414.7 1396.2 434.5C1454.3 454.3 1512.7 497.7 1570.8 517.5C1629 537.3 1687 533.7 1745.2 528.3C1803.3 523 1861.7 516 1890.8 512.5L1920 509L1920 129L1890.8 130.7C1861.7 132.3 1803.3 135.7 1745.2 132C1687 128.3 1629 117.7 1570.8 126.7C1512.7 135.7 1454.3 164.3 1396.2 177C1338 189.7 1280 186.3 1221.8 166.7C1163.7 147 1105.3 111 1047.2 118.2C989 125.3 931 175.7 872.8 186.3C814.7 197 756.3 168 698.2 148.2C640 128.3 582 117.7 523.8 107C465.7 96.3 407.3 85.7 349.2 89.3C291 93 233 111 174.8 120C116.7 129 58.3 129 29.2 129L0 129Z" fill="#3c80ff"></path><path d="M0 822L29.2 798.5C58.3 775 116.7 728 174.8 722.5C233 717 291 753 349.2 776.5C407.3 800 465.7 811 523.8 807.5C582 804 640 786 698.2 771.5C756.3 757 814.7 746 872.8 728C931 710 989 685 1047.2 676C1105.3 667 1163.7 674 1221.8 690.2C1280 706.3 1338 731.7 1396.2 735.3C1454.3 739 1512.7 721 1570.8 713.8C1629 706.7 1687 710.3 1745.2 715.7C1803.3 721 1861.7 728 1890.8 731.5L1920 735L1920 507L1890.8 510.5C1861.7 514 1803.3 521 1745.2 526.3C1687 531.7 1629 535.3 1570.8 515.5C1512.7 495.7 1454.3 452.3 1396.2 432.5C1338 412.7 1280 416.3 1221.8 432.7C1163.7 449 1105.3 478 1047.2 485.2C989 492.3 931 477.7 872.8 477.7C814.7 477.7 756.3 492.3 698.2 494.2C640 496 582 485 523.8 492.2C465.7 499.3 407.3 524.7 349.2 495.8C291 467 233 384 174.8 380.3C116.7 376.7 58.3 452.3 29.2 490.2L0 528Z" fill="#0066ff"></path><path d="M0 1005L29.2 988.8C58.3 972.7 116.7 940.3 174.8 940.3C233 940.3 291 972.7 349.2 988.8C407.3 1005 465.7 1005 523.8 990.7C582 976.3 640 947.7 698.2 940.5C756.3 933.3 814.7 947.7 872.8 944C931 940.3 989 918.7 1047.2 918.7C1105.3 918.7 1163.7 940.3 1221.8 940.3C1280 940.3 1338 918.7 1396.2 913.3C1454.3 908 1512.7 919 1570.8 920.8C1629 922.7 1687 915.3 1745.2 913.5C1803.3 911.7 1861.7 915.3 1890.8 917.2L1920 919L1920 733L1890.8 729.5C1861.7 726 1803.3 719 1745.2 713.7C1687 708.3 1629 704.7 1570.8 711.8C1512.7 719 1454.3 737 1396.2 733.3C1338 729.7 1280 704.3 1221.8 688.2C1163.7 672 1105.3 665 1047.2 674C989 683 931 708 872.8 726C814.7 744 756.3 755 698.2 769.5C640 784 582 802 523.8 805.5C465.7 809 407.3 798 349.2 774.5C291 751 233 715 174.8 720.5C116.7 726 58.3 773 29.2 796.5L0 820Z" fill="#0059dd"></path><path d="M0 1081L29.2 1081C58.3 1081 116.7 1081 174.8 1081C233 1081 291 1081 349.2 1081C407.3 1081 465.7 1081 523.8 1081C582 1081 640 1081 698.2 1081C756.3 1081 814.7 1081 872.8 1081C931 1081 989 1081 1047.2 1081C1105.3 1081 1163.7 1081 1221.8 1081C1280 1081 1338 1081 1396.2 1081C1454.3 1081 1512.7 1081 1570.8 1081C1629 1081 1687 1081 1745.2 1081C1803.3 1081 1861.7 1081 1890.8 1081L1920 1081L1920 917L1890.8 915.2C1861.7 913.3 1803.3 909.7 1745.2 911.5C1687 913.3 1629 920.7 1570.8 918.8C1512.7 917 1454.3 906 1396.2 911.3C1338 916.7 1280 938.3 1221.8 938.3C1163.7 938.3 1105.3 916.7 1047.2 916.7C989 916.7 931 938.3 872.8 942C814.7 945.7 756.3 931.3 698.2 938.5C640 945.7 582 974.3 523.8 988.7C465.7 1003 407.3 1003 349.2 986.8C291 970.7 233 938.3 174.8 938.3C116.7 938.3 58.3 970.7 29.2 986.8L0 1003Z" fill="#004cbb"></path></svg>