<svg id="visual" viewBox="0 0 1920 1080" width="1920" height="1080" xmlns="http://www.w3.org/2000/svg" xmlns:xlink="http://www.w3.org/1999/xlink" version="1.1"><rect width="1920" height="1080" fill="#001829"></rect><g><g transform="translate(723 9)"><path d="M0 -140L121.2 -70L121.2 70L0 140L-121.2 70L-121.2 -70Z" fill="#297EA6"></path></g><g transform="translate(518 1056)"><path d="M0 -111L96.1 -55.5L96.1 55.5L0 111L-96.1 55.5L-96.1 -55.5Z" fill="#297EA6"></path></g><g transform="translate(1795 89)"><path d="M0 -116L100.5 -58L100.5 58L0 116L-100.5 58L-100.5 -58Z" fill="#297EA6"></path></g><g transform="translate(1820 691)"><path d="M0 -99L85.7 -49.5L85.7 49.5L0 99L-85.7 49.5L-85.7 -49.5Z" fill="#297EA6"></path></g><g transform="translate(123 600)"><path d="M0 -138L119.5 -69L119.5 69L0 138L-119.5 69L-119.5 -69Z" fill="#297EA6"></path></g><g transform="translate(1242 417)"><path d="M0 -127L110 -63.5L110 63.5L0 127L-110 63.5L-110 -63.5Z" fill="#297EA6"></path></g><g transform="translate(706 390)"><path d="M0 -104L90.1 -52L90.1 52L0 104L-90.1 52L-90.1 -52Z" fill="#297EA6"></path></g><g transform="translate(1063 176)"><path d="M0 -48L41.6 -24L41.6 24L0 48L-41.6 24L-41.6 -24Z" fill="#297EA6"></path></g><g transform="translate(1738 394)"><path d="M0 -76L65.8 -38L65.8 38L0 76L-65.8 38L-65.8 -38Z" fill="#297EA6"></path></g><g transform="translate(1361 971)"><path d="M0 -139L120.4 -69.5L120.4 69.5L0 139L-120.4 69.5L-120.4 -69.5Z" fill="#297EA6"></path></g><g transform="translate(490 644)"><path d="M0 -133L115.2 -66.5L115.2 66.5L0 133L-115.2 66.5L-115.2 -66.5Z" fill="#297EA6"></path></g><g transform="translate(41 1060)"><path d="M0 -131L113.4 -65.5L113.4 65.5L0 131L-113.4 65.5L-113.4 -65.5Z" fill="#297EA6"></path></g><g transform="translate(986 994)"><path d="M0 -17L14.7 -8.5L14.7 8.5L0 17L-14.7 8.5L-14.7 -8.5Z" fill="#297EA6"></path></g><g transform="translate(925 639)"><path d="M0 -54L46.8 -27L46.8 27L0 54L-46.8 27L-46.8 -27Z" fill="#297EA6"></path></g><g transform="translate(76 114)"><path d="M0 -101L87.5 -50.5L87.5 50.5L0 101L-87.5 50.5L-87.5 -50.5Z" fill="#297EA6"></path></g><g transform="translate(1862 986)"><path d="M0 -91L78.8 -45.5L78.8 45.5L0 91L-78.8 45.5L-78.8 -45.5Z" fill="#297EA6"></path></g><g transform="translate(1445 74)"><path d="M0 -125L108.3 -62.5L108.3 62.5L0 125L-108.3 62.5L-108.3 -62.5Z" fill="#297EA6"></path></g><g transform="translate(464 222)"><path d="M0 -114L98.7 -57L98.7 57L0 114L-98.7 57L-98.7 -57Z" fill="#297EA6"></path></g><g transform="translate(712 836)"><path d="M0 -73L63.2 -36.5L63.2 36.5L0 73L-63.2 36.5L-63.2 -36.5Z" fill="#297EA6"></path></g><g transform="translate(1191 744)"><path d="M0 -118L102.2 -59L102.2 59L0 118L-102.2 59L-102.2 -59Z" fill="#297EA6"></path></g><g transform="translate(1481 611)"><path d="M0 -90L77.9 -45L77.9 45L0 90L-77.9 45L-77.9 -45Z" fill="#297EA6"></path></g><g transform="translate(288 843)"><path d="M0 -56L48.5 -28L48.5 28L0 56L-48.5 28L-48.5 -28Z" fill="#297EA6"></path></g></g></svg>