<svg id="visual" viewBox="0 0 1920 1080" width="1920" height="1080" xmlns="http://www.w3.org/2000/svg" xmlns:xlink="http://www.w3.org/1999/xlink" version="1.1"><rect x="0" y="0" width="1920" height="1080" fill="#001220"></rect><path d="M0 281L21.3 311.5C42.7 342 85.3 403 128 408.8C170.7 414.7 213.3 365.3 256 381.7C298.7 398 341.3 480 384 473.2C426.7 466.3 469.3 370.7 512 369.2C554.7 367.7 597.3 460.3 640 456.7C682.7 453 725.3 353 768 330.3C810.7 307.7 853.3 362.3 896 392.8C938.7 423.3 981.3 429.7 1024 461.5C1066.7 493.3 1109.3 550.7 1152 585C1194.7 619.3 1237.3 630.7 1280 587.8C1322.7 545 1365.3 448 1408 407.2C1450.7 366.3 1493.3 381.7 1536 388.5C1578.7 395.3 1621.3 393.7 1664 415.8C1706.7 438 1749.3 484 1792 481.2C1834.7 478.3 1877.3 426.7 1898.7 400.8L1920 375L1920 1081L1898.7 1081C1877.3 1081 1834.7 1081 1792 1081C1749.3 1081 1706.7 1081 1664 1081C1621.3 1081 1578.7 1081 1536 1081C1493.3 1081 1450.7 1081 1408 1081C1365.3 1081 1322.7 1081 1280 1081C1237.3 1081 1194.7 1081 1152 1081C1109.3 1081 1066.7 1081 1024 1081C981.3 1081 938.7 1081 896 1081C853.3 1081 810.7 1081 768 1081C725.3 1081 682.7 1081 640 1081C597.3 1081 554.7 1081 512 1081C469.3 1081 426.7 1081 384 1081C341.3 1081 298.7 1081 256 1081C213.3 1081 170.7 1081 128 1081C85.3 1081 42.7 1081 21.3 1081L0 1081Z" fill="#fa7268"></path><path d="M0 510L21.3 494.5C42.7 479 85.3 448 128 472C170.7 496 213.3 575 256 618.2C298.7 661.3 341.3 668.7 384 613.5C426.7 558.3 469.3 440.7 512 414.8C554.7 389 597.3 455 640 493.2C682.7 531.3 725.3 541.7 768 577C810.7 612.3 853.3 672.7 896 683.8C938.7 695 981.3 657 1024 633.5C1066.7 610 1109.3 601 1152 560.3C1194.7 519.7 1237.3 447.3 1280 461.5C1322.7 475.7 1365.3 576.3 1408 581.2C1450.7 586 1493.3 495 1536 482C1578.7 469 1621.3 534 1664 547.8C1706.7 561.7 1749.3 524.3 1792 518.2C1834.7 512 1877.3 537 1898.7 549.5L1920 562L1920 1081L1898.7 1081C1877.3 1081 1834.7 1081 1792 1081C1749.3 1081 1706.7 1081 1664 1081C1621.3 1081 1578.7 1081 1536 1081C1493.3 1081 1450.7 1081 1408 1081C1365.3 1081 1322.7 1081 1280 1081C1237.3 1081 1194.7 1081 1152 1081C1109.3 1081 1066.7 1081 1024 1081C981.3 1081 938.7 1081 896 1081C853.3 1081 810.7 1081 768 1081C725.3 1081 682.7 1081 640 1081C597.3 1081 554.7 1081 512 1081C469.3 1081 426.7 1081 384 1081C341.3 1081 298.7 1081 256 1081C213.3 1081 170.7 1081 128 1081C85.3 1081 42.7 1081 21.3 1081L0 1081Z" fill="#f46767"></path><path d="M0 778L21.3 726.2C42.7 674.3 85.3 570.7 128 536.3C170.7 502 213.3 537 256 576.7C298.7 616.3 341.3 660.7 384 668C426.7 675.3 469.3 645.7 512 610.5C554.7 575.3 597.3 534.7 640 552.2C682.7 569.7 725.3 645.3 768 636.7C810.7 628 853.3 535 896 487.8C938.7 440.7 981.3 439.3 1024 473.5C1066.7 507.7 1109.3 577.3 1152 605.2C1194.7 633 1237.3 619 1280 583.5C1322.7 548 1365.3 491 1408 500.7C1450.7 510.3 1493.3 586.7 1536 611.7C1578.7 636.7 1621.3 610.3 1664 569.2C1706.7 528 1749.3 472 1792 462C1834.7 452 1877.3 488 1898.7 506L1920 524L1920 1081L1898.7 1081C1877.3 1081 1834.7 1081 1792 1081C1749.3 1081 1706.7 1081 1664 1081C1621.3 1081 1578.7 1081 1536 1081C1493.3 1081 1450.7 1081 1408 1081C1365.3 1081 1322.7 1081 1280 1081C1237.3 1081 1194.7 1081 1152 1081C1109.3 1081 1066.7 1081 1024 1081C981.3 1081 938.7 1081 896 1081C853.3 1081 810.7 1081 768 1081C725.3 1081 682.7 1081 640 1081C597.3 1081 554.7 1081 512 1081C469.3 1081 426.7 1081 384 1081C341.3 1081 298.7 1081 256 1081C213.3 1081 170.7 1081 128 1081C85.3 1081 42.7 1081 21.3 1081L0 1081Z" fill="#ee5c67"></path><path d="M0 634L21.3 613.2C42.7 592.3 85.3 550.7 128 550.5C170.7 550.3 213.3 591.7 256 629.7C298.7 667.7 341.3 702.3 384 714.5C426.7 726.7 469.3 716.3 512 715.2C554.7 714 597.3 722 640 740.3C682.7 758.7 725.3 787.3 768 781.7C810.7 776 853.3 736 896 704C938.7 672 981.3 648 1024 641.7C1066.7 635.3 1109.3 646.7 1152 659.7C1194.7 672.7 1237.3 687.3 1280 671.2C1322.7 655 1365.3 608 1408 619.2C1450.7 630.3 1493.3 699.7 1536 743.2C1578.7 786.7 1621.3 804.3 1664 777.2C1706.7 750 1749.3 678 1792 674.3C1834.7 670.7 1877.3 735.3 1898.7 767.7L1920 800L1920 1081L1898.7 1081C1877.3 1081 1834.7 1081 1792 1081C1749.3 1081 1706.7 1081 1664 1081C1621.3 1081 1578.7 1081 1536 1081C1493.3 1081 1450.7 1081 1408 1081C1365.3 1081 1322.7 1081 1280 1081C1237.3 1081 1194.7 1081 1152 1081C1109.3 1081 1066.7 1081 1024 1081C981.3 1081 938.7 1081 896 1081C853.3 1081 810.7 1081 768 1081C725.3 1081 682.7 1081 640 1081C597.3 1081 554.7 1081 512 1081C469.3 1081 426.7 1081 384 1081C341.3 1081 298.7 1081 256 1081C213.3 1081 170.7 1081 128 1081C85.3 1081 42.7 1081 21.3 1081L0 1081Z" fill="#e75167"></path><path d="M0 781L21.3 773.2C42.7 765.3 85.3 749.7 128 762.2C170.7 774.7 213.3 815.3 256 832.8C298.7 850.3 341.3 844.7 384 839.5C426.7 834.3 469.3 829.7 512 837.3C554.7 845 597.3 865 640 829.2C682.7 793.3 725.3 701.7 768 677.3C810.7 653 853.3 696 896 733.3C938.7 770.7 981.3 802.3 1024 797.7C1066.7 793 1109.3 752 1152 743.8C1194.7 735.7 1237.3 760.3 1280 781.3C1322.7 802.3 1365.3 819.7 1408 789.8C1450.7 760 1493.3 683 1536 670C1578.7 657 1621.3 708 1664 734.5C1706.7 761 1749.3 763 1792 766C1834.7 769 1877.3 773 1898.7 775L1920 777L1920 1081L1898.7 1081C1877.3 1081 1834.7 1081 1792 1081C1749.3 1081 1706.7 1081 1664 1081C1621.3 1081 1578.7 1081 1536 1081C1493.3 1081 1450.7 1081 1408 1081C1365.3 1081 1322.7 1081 1280 1081C1237.3 1081 1194.7 1081 1152 1081C1109.3 1081 1066.7 1081 1024 1081C981.3 1081 938.7 1081 896 1081C853.3 1081 810.7 1081 768 1081C725.3 1081 682.7 1081 640 1081C597.3 1081 554.7 1081 512 1081C469.3 1081 426.7 1081 384 1081C341.3 1081 298.7 1081 256 1081C213.3 1081 170.7 1081 128 1081C85.3 1081 42.7 1081 21.3 1081L0 1081Z" fill="#df4667"></path><path d="M0 921L21.3 920.2C42.7 919.3 85.3 917.7 128 920.8C170.7 924 213.3 932 256 935.7C298.7 939.3 341.3 938.7 384 941C426.7 943.3 469.3 948.7 512 921.5C554.7 894.3 597.3 834.7 640 792.7C682.7 750.7 725.3 726.3 768 756.5C810.7 786.7 853.3 871.3 896 914C938.7 956.7 981.3 957.3 1024 925.2C1066.7 893 1109.3 828 1152 820.5C1194.7 813 1237.3 863 1280 866.3C1322.7 869.7 1365.3 826.3 1408 829.5C1450.7 832.7 1493.3 882.3 1536 901.2C1578.7 920 1621.3 908 1664 895.7C1706.7 883.3 1749.3 870.7 1792 846.7C1834.7 822.7 1877.3 787.3 1898.7 769.7L1920 752L1920 1081L1898.7 1081C1877.3 1081 1834.7 1081 1792 1081C1749.3 1081 1706.7 1081 1664 1081C1621.3 1081 1578.7 1081 1536 1081C1493.3 1081 1450.7 1081 1408 1081C1365.3 1081 1322.7 1081 1280 1081C1237.3 1081 1194.7 1081 1152 1081C1109.3 1081 1066.7 1081 1024 1081C981.3 1081 938.7 1081 896 1081C853.3 1081 810.7 1081 768 1081C725.3 1081 682.7 1081 640 1081C597.3 1081 554.7 1081 512 1081C469.3 1081 426.7 1081 384 1081C341.3 1081 298.7 1081 256 1081C213.3 1081 170.7 1081 128 1081C85.3 1081 42.7 1081 21.3 1081L0 1081Z" fill="#d73b67"></path><path d="M0 901L21.3 899.5C42.7 898 85.3 895 128 886.7C170.7 878.3 213.3 864.7 256 863.7C298.7 862.7 341.3 874.3 384 871.3C426.7 868.3 469.3 850.7 512 847C554.7 843.3 597.3 853.7 640 873.7C682.7 893.7 725.3 923.3 768 939.7C810.7 956 853.3 959 896 950.8C938.7 942.7 981.3 923.3 1024 915C1066.7 906.7 1109.3 909.3 1152 904.8C1194.7 900.3 1237.3 888.7 1280 896.8C1322.7 905 1365.3 933 1408 954.2C1450.7 975.3 1493.3 989.7 1536 970.7C1578.7 951.7 1621.3 899.3 1664 887C1706.7 874.7 1749.3 902.3 1792 918.7C1834.7 935 1877.3 940 1898.7 942.5L1920 945L1920 1081L1898.7 1081C1877.3 1081 1834.7 1081 1792 1081C1749.3 1081 1706.7 1081 1664 1081C1621.3 1081 1578.7 1081 1536 1081C1493.3 1081 1450.7 1081 1408 1081C1365.3 1081 1322.7 1081 1280 1081C1237.3 1081 1194.7 1081 1152 1081C1109.3 1081 1066.7 1081 1024 1081C981.3 1081 938.7 1081 896 1081C853.3 1081 810.7 1081 768 1081C725.3 1081 682.7 1081 640 1081C597.3 1081 554.7 1081 512 1081C469.3 1081 426.7 1081 384 1081C341.3 1081 298.7 1081 256 1081C213.3 1081 170.7 1081 128 1081C85.3 1081 42.7 1081 21.3 1081L0 1081Z" fill="#cf3068"></path><path d="M0 983L21.3 971.3C42.7 959.7 85.3 936.3 128 930C170.7 923.7 213.3 934.3 256 935.2C298.7 936 341.3 927 384 943C426.7 959 469.3 1000 512 1024.7C554.7 1049.3 597.3 1057.7 640 1060C682.7 1062.3 725.3 1058.7 768 1046.8C810.7 1035 853.3 1015 896 1012.7C938.7 1010.3 981.3 1025.7 1024 1029C1066.7 1032.3 1109.3 1023.7 1152 1024C1194.7 1024.3 1237.3 1033.7 1280 1021C1322.7 1008.3 1365.3 973.7 1408 970.7C1450.7 967.7 1493.3 996.3 1536 1015.8C1578.7 1035.3 1621.3 1045.7 1664 1028.7C1706.7 1011.7 1749.3 967.3 1792 956.7C1834.7 946 1877.3 969 1898.7 980.5L1920 992L1920 1081L1898.7 1081C1877.3 1081 1834.7 1081 1792 1081C1749.3 1081 1706.7 1081 1664 1081C1621.3 1081 1578.7 1081 1536 1081C1493.3 1081 1450.7 1081 1408 1081C1365.3 1081 1322.7 1081 1280 1081C1237.3 1081 1194.7 1081 1152 1081C1109.3 1081 1066.7 1081 1024 1081C981.3 1081 938.7 1081 896 1081C853.3 1081 810.7 1081 768 1081C725.3 1081 682.7 1081 640 1081C597.3 1081 554.7 1081 512 1081C469.3 1081 426.7 1081 384 1081C341.3 1081 298.7 1081 256 1081C213.3 1081 170.7 1081 128 1081C85.3 1081 42.7 1081 21.3 1081L0 1081Z" fill="#c62368"></path></svg>