<svg id="visual" viewBox="0 0 1920 1080" width="1920" height="1080" xmlns="http://www.w3.org/2000/svg" xmlns:xlink="http://www.w3.org/1999/xlink" version="1.1"><rect x="0" y="0" width="1920" height="1080" fill="#FF0066"></rect><g transform="translate(975.0988880308764 476.2120377583325)"><path d="M401.6 -398.4C538.8 -363.5 681.1 -254.3 673.3 -141.9C665.5 -29.4 507.7 86.3 411 221.8C314.3 357.4 278.7 512.7 199.5 536.7C120.2 560.7 -2.9 453.2 -179.8 420.6C-356.7 388 -587.6 430.3 -668 354.7C-748.5 279.2 -678.5 86 -603 -65.3C-527.4 -216.6 -446.3 -325.8 -344.8 -367C-243.4 -408.2 -121.7 -381.3 5.2 -387.6C132.2 -393.8 264.4 -433.2 401.6 -398.4" fill="#BB004B"></path></g></svg>