<svg id="visual" viewBox="0 0 1920 1080" width="1920" height="1080" xmlns="http://www.w3.org/2000/svg" xmlns:xlink="http://www.w3.org/1999/xlink" version="1.1"><rect x="0" y="0" width="1920" height="1080" fill="#1276d3"></rect><path d="M1011 1080L1012 1080L1012 990L912 990L912 900L1064 900L1064 810L1119 810L1119 720L1139 720L1139 630L530 630L530 540L1040 540L1040 450L1039 450L1039 360L668 360L668 270L1013 270L1013 180L1098 180L1098 90L994 90L994 0L1920 0L1920 90L1920 90L1920 180L1920 180L1920 270L1920 270L1920 360L1920 360L1920 450L1920 450L1920 540L1920 540L1920 630L1920 630L1920 720L1920 720L1920 810L1920 810L1920 900L1920 900L1920 990L1920 990L1920 1080L1920 1080Z" fill="#969a20"></path><path d="M952 1080L911 1080L911 990L978 990L978 900L1330 900L1330 810L1075 810L1075 720L991 720L991 630L1321 630L1321 540L1258 540L1258 450L1077 450L1077 360L1076 360L1076 270L910 270L910 180L1197 180L1197 90L950 90L950 0L1920 0L1920 90L1920 90L1920 180L1920 180L1920 270L1920 270L1920 360L1920 360L1920 450L1920 450L1920 540L1920 540L1920 630L1920 630L1920 720L1920 720L1920 810L1920 810L1920 900L1920 900L1920 990L1920 990L1920 1080L1920 1080Z" fill="#bab825"></path><path d="M1306 1080L1592 1080L1592 990L1435 990L1435 900L1460 900L1460 810L1536 810L1536 720L1471 720L1471 630L1388 630L1388 540L1311 540L1311 450L1498 450L1498 360L1611 360L1611 270L1585 270L1585 180L1442 180L1442 90L1695 90L1695 0L1920 0L1920 90L1920 90L1920 180L1920 180L1920 270L1920 270L1920 360L1920 360L1920 450L1920 450L1920 540L1920 540L1920 630L1920 630L1920 720L1920 720L1920 810L1920 810L1920 900L1920 900L1920 990L1920 990L1920 1080L1920 1080Z" fill="#e1d629"></path></svg>