<svg width="50" height="50" viewBox="0 0 50 50" fill="none" xmlns="http://www.w3.org/2000/svg">
<path fill-rule="evenodd" clip-rule="evenodd" d="M14.8303 23.0917C14.5282 22.6961 14.0415 22.4873 13.5468 22.5411C13.0522 22.5948 12.6216 22.9034 12.4114 23.3547L0.154634 47.878C-0.0723915 48.3324 -0.0481234 48.872 0.218773 49.3042C0.485668 49.7364 0.957138 49.9995 1.46483 49.9995H18.5318C19.0903 50.0125 19.6039 49.6948 19.842 49.1891C23.5236 41.5762 21.2924 30.0008 14.8303 23.0917Z" fill="url(#paint0_linear_21_102)"/>
<path fill-rule="evenodd" clip-rule="evenodd" d="M23.82 0.78671C17.6069 10.3535 16.8898 22.4883 21.9329 32.7212L30.1611 49.1892C30.4092 49.6858 30.9164 49.9996 31.4713 49.9996H48.5352C49.0429 49.9996 49.5143 49.7365 49.7812 49.3043C50.0481 48.8721 50.0724 48.3325 49.8454 47.8781C49.8454 47.8781 26.8886 1.92685 26.3117 0.777509C26.0789 0.30012 25.5938 -0.00195059 25.063 9.48172e-06C24.5322 0.00196956 24.0493 0.307614 23.82 0.78671Z" fill="#2684FF"/>
<defs>
<linearGradient id="paint0_linear_21_102" x1="21.5475" y1="26.8763" x2="4.35582" y2="45.3309" gradientUnits="userSpaceOnUse">
<stop stop-color="#F4F90A"/>
<stop offset="0.923" stop-color="#FBE41A"/>
</linearGradient>
</defs>
</svg>
